# xmcd CD database file
#
# Track frame offsets:
#	150
#	11459
#	20960
#	35189
#	47907
#	63528
#	79041
#	94226
#	111223
#	124346
#	144862
#	157959
#	174071
#
# Disc length: 2487 seconds
#
# Revision: 0
# Processed by: cddbd v1.5.2PL0 Copyright (c) Steve Scherf et al.
# Submitted via: CDex 1.70beta2
#
DISCID=aa09b50d
DTITLE=Harold Ford and The Cash Band - Live in Concert at MVCC
DYEAR=2010
DGENRE=Country
TTITLE0=Get Rhythm
TTITLE1=All Over Again
TTITLE2=Don't Take Your Guns to Town
TTITLE3=The Chicken in Black
TTITLE4=Big River
TTITLE5=The Highwayman
TTITLE6=Guitar Pickin' Man
TTITLE7=Ghost Riders
TTITLE8=Orange Blossom Special
TTITLE9=I Hung My Head
TTITLE10=Ring of Fire
TTITLE11=A Boy Named Sue
TTITLE12=Jackson
EXTD=YEAR: 2010
EXTT0=
EXTT1=
EXTT2=
EXTT3=
EXTT4=
EXTT5=
EXTT6=
EXTT7=
EXTT8=
EXTT9=
EXTT10=
EXTT11=
EXTT12=
PLAYORDER=
